<mxfile host="app.diagrams.net" modified="2023-09-01T06:17:18.437Z" agent="Mozilla/5.0 (Windows NT 10.0; Win64; x64) AppleWebKit/537.36 (KHTML, like Gecko) Chrome/116.0.0.0 Safari/537.36" etag="Q5IwxNDrcC0gllJO9uet" version="21.6.8" type="github">
  <diagram id="prtHgNgQTEPvFCAcTncT" name="Page-1">
    <mxGraphModel dx="1052" dy="4701" grid="1" gridSize="10" guides="1" tooltips="1" connect="1" arrows="1" fold="1" page="1" pageScale="1" pageWidth="1169" pageHeight="827" background="none" math="0" shadow="1">
      <root>
        <mxCell id="0" />
        <mxCell id="1" parent="0" />
        <mxCell id="3rI8jzU3DhC4SiO8iFlz-46" style="edgeStyle=orthogonalEdgeStyle;rounded=0;orthogonalLoop=1;jettySize=auto;html=1;entryX=0.356;entryY=0.607;entryDx=0;entryDy=0;entryPerimeter=0;" edge="1" parent="1" source="3rI8jzU3DhC4SiO8iFlz-1" target="3rI8jzU3DhC4SiO8iFlz-40">
          <mxGeometry relative="1" as="geometry" />
        </mxCell>
        <mxCell id="3rI8jzU3DhC4SiO8iFlz-1" value="Bộ Phận Chốt Seo" style="swimlane;html=1;startSize=20;horizontal=1;containerType=tree;glass=0;fillColor=#e3c800;fontColor=#000000;strokeColor=#B09500;" vertex="1" parent="1">
          <mxGeometry x="130" y="-2660" width="710" height="260" as="geometry" />
        </mxCell>
        <mxCell id="3rI8jzU3DhC4SiO8iFlz-52" style="edgeStyle=orthogonalEdgeStyle;rounded=0;sketch=1;hachureGap=4;jiggle=2;curveFitting=1;orthogonalLoop=1;jettySize=auto;html=1;fontFamily=Architects Daughter;fontSource=https%3A%2F%2Ffonts.googleapis.com%2Fcss%3Ffamily%3DArchitects%2BDaughter;fontSize=16;fillColor=#f8cecc;strokeColor=#b85450;gradientColor=#ea6b66;" edge="1" parent="3rI8jzU3DhC4SiO8iFlz-1" source="3rI8jzU3DhC4SiO8iFlz-2">
          <mxGeometry relative="1" as="geometry">
            <mxPoint x="910" y="-20" as="targetPoint" />
          </mxGeometry>
        </mxCell>
        <UserObject label="Name: Nguyễn Văn Hạnh Phụ Trách" name="Tessa Miller" position="CFO" location="Office 1" email="me@example.com" placeholders="1" link="https://www.draw.io" id="3rI8jzU3DhC4SiO8iFlz-2">
          <mxCell style="label;image=https://cdn3.iconfinder.com/data/icons/user-avatars-1/512/users-3-128.png;whiteSpace=wrap;html=1;rounded=0;glass=0;treeMoving=1;treeFolding=1;fillColor=#b0e3e6;strokeColor=#0e8088;" vertex="1" parent="3rI8jzU3DhC4SiO8iFlz-1">
            <mxGeometry x="265" y="30" width="180" height="70" as="geometry" />
          </mxCell>
        </UserObject>
        <mxCell id="3rI8jzU3DhC4SiO8iFlz-3" value="" style="endArrow=blockThin;endFill=1;fontSize=11;edgeStyle=elbowEdgeStyle;elbow=vertical;rounded=0;" edge="1" parent="3rI8jzU3DhC4SiO8iFlz-1" source="3rI8jzU3DhC4SiO8iFlz-2" target="3rI8jzU3DhC4SiO8iFlz-4">
          <mxGeometry relative="1" as="geometry" />
        </mxCell>
        <UserObject label="&amp;nbsp;Cộng Tác Viên" name="Edward Morrison" position="Brand Manager" location="Office 2" email="me@example.com" placeholders="1" link="https://www.draw.io" id="3rI8jzU3DhC4SiO8iFlz-4">
          <mxCell style="label;image=https://cdn3.iconfinder.com/data/icons/user-avatars-1/512/users-10-3-128.png;whiteSpace=wrap;html=1;rounded=0;glass=0;treeFolding=1;treeMoving=1;fillColor=#fad7ac;strokeColor=#b46504;" vertex="1" parent="3rI8jzU3DhC4SiO8iFlz-1">
            <mxGeometry x="40" y="150" width="180" height="80" as="geometry" />
          </mxCell>
        </UserObject>
        <mxCell id="3rI8jzU3DhC4SiO8iFlz-5" value="" style="endArrow=blockThin;endFill=1;fontSize=11;edgeStyle=elbowEdgeStyle;elbow=vertical;rounded=0;" edge="1" parent="3rI8jzU3DhC4SiO8iFlz-1" source="3rI8jzU3DhC4SiO8iFlz-2" target="3rI8jzU3DhC4SiO8iFlz-55">
          <mxGeometry relative="1" as="geometry" />
        </mxCell>
        <mxCell id="3rI8jzU3DhC4SiO8iFlz-7" value="" style="endArrow=blockThin;endFill=1;fontSize=11;edgeStyle=elbowEdgeStyle;elbow=vertical;rounded=0;" edge="1" parent="3rI8jzU3DhC4SiO8iFlz-1" target="3rI8jzU3DhC4SiO8iFlz-8">
          <mxGeometry relative="1" as="geometry">
            <mxPoint x="355" y="100" as="sourcePoint" />
          </mxGeometry>
        </mxCell>
        <UserObject label="Cộng Tác Viên" name="Alison Donovan" position="System Admin" location="Office 3" email="me@example.com" placeholders="1" link="https://www.draw.io" id="3rI8jzU3DhC4SiO8iFlz-8">
          <mxCell style="label;image=https://cdn3.iconfinder.com/data/icons/user-avatars-1/512/users-2-128.png;whiteSpace=wrap;html=1;rounded=0;glass=0;fillColor=#fad7ac;strokeColor=#b46504;" vertex="1" parent="3rI8jzU3DhC4SiO8iFlz-1">
            <mxGeometry x="494.5" y="150" width="180" height="80" as="geometry" />
          </mxCell>
        </UserObject>
        <UserObject label="Cộng Tác Viên" name="Evan Valet" position="HR Director" location="Office 4" email="me@example.com" placeholders="1" link="https://www.draw.io" id="3rI8jzU3DhC4SiO8iFlz-55">
          <mxCell style="label;image=https://cdn3.iconfinder.com/data/icons/user-avatars-1/512/users-9-2-128.png;whiteSpace=wrap;html=1;rounded=0;glass=0;treeFolding=1;treeMoving=1;fillColor=#fad7ac;strokeColor=#b46504;" vertex="1" parent="3rI8jzU3DhC4SiO8iFlz-1">
            <mxGeometry x="265" y="150" width="180" height="80" as="geometry" />
          </mxCell>
        </UserObject>
        <mxCell id="3rI8jzU3DhC4SiO8iFlz-43" style="edgeStyle=orthogonalEdgeStyle;rounded=0;orthogonalLoop=1;jettySize=auto;html=1;" edge="1" parent="1" source="3rI8jzU3DhC4SiO8iFlz-9" target="3rI8jzU3DhC4SiO8iFlz-40">
          <mxGeometry relative="1" as="geometry">
            <Array as="points">
              <mxPoint x="255" y="-2740" />
              <mxPoint x="453" y="-2740" />
            </Array>
          </mxGeometry>
        </mxCell>
        <UserObject label="&lt;font color=&quot;#e2e4e9&quot;&gt;Học Viên : Vừa học vừa làm vừa nhận lương&lt;br&gt;&lt;/font&gt;" name="Tessa Miller" position="CFO" location="Office 1" email="me@example.com" placeholders="1" id="3rI8jzU3DhC4SiO8iFlz-9">
          <mxCell style="label;image=https://cdn3.iconfinder.com/data/icons/user-avatars-1/512/users-3-128.png;whiteSpace=wrap;html=1;rounded=0;glass=0;treeMoving=1;treeFolding=1;fillColor=#d80073;strokeColor=#A50040;fontColor=#ffffff;" vertex="1" parent="1">
            <mxGeometry x="205" y="-2900" width="150" height="70" as="geometry" />
          </mxCell>
        </UserObject>
        <mxCell id="3rI8jzU3DhC4SiO8iFlz-38" value="" style="edgeStyle=orthogonalEdgeStyle;rounded=0;orthogonalLoop=1;jettySize=auto;html=1;" edge="1" parent="1" source="3rI8jzU3DhC4SiO8iFlz-11" target="3rI8jzU3DhC4SiO8iFlz-20">
          <mxGeometry relative="1" as="geometry" />
        </mxCell>
        <mxCell id="3rI8jzU3DhC4SiO8iFlz-51" style="edgeStyle=orthogonalEdgeStyle;rounded=0;sketch=1;hachureGap=4;jiggle=2;curveFitting=1;orthogonalLoop=1;jettySize=auto;html=1;fontFamily=Architects Daughter;fontSource=https%3A%2F%2Ffonts.googleapis.com%2Fcss%3Ffamily%3DArchitects%2BDaughter;fontSize=16;fillColor=#f8cecc;gradientColor=#ea6b66;strokeColor=#b85450;" edge="1" parent="1" source="3rI8jzU3DhC4SiO8iFlz-11" target="3rI8jzU3DhC4SiO8iFlz-47">
          <mxGeometry relative="1" as="geometry">
            <Array as="points">
              <mxPoint x="280" y="-3180" />
              <mxPoint x="1020" y="-3180" />
            </Array>
          </mxGeometry>
        </mxCell>
        <UserObject label="&lt;font style=&quot;border-color: var(--border-color);&quot; color=&quot;#e2e4e9&quot;&gt;&lt;br style=&quot;border-color: var(--border-color);&quot;&gt;&lt;/font&gt;Name: Võ Tá Long&lt;br style=&quot;border-color: var(--border-color); color: rgb(226, 228, 233);&quot;&gt;&lt;i style=&quot;border-color: var(--border-color); color: rgb(226, 228, 233);&quot;&gt;Chuyên Môn: IT,&lt;span style=&quot;background-color: rgb(8, 53, 231);&quot;&gt; &lt;/span&gt;Marktting và đào tạo học viên&lt;br style=&quot;border-color: var(--border-color);&quot;&gt;&lt;/i&gt;&lt;font style=&quot;border-color: var(--border-color);&quot; color=&quot;#e2e4e9&quot;&gt;&lt;br style=&quot;border-color: var(--border-color);&quot;&gt;&lt;/font&gt;" name="Evan Valet" position="HR Director" location="Office 4" email="me@example.com" placeholders="1" id="3rI8jzU3DhC4SiO8iFlz-11">
          <mxCell style="label;image=https://cdn3.iconfinder.com/data/icons/user-avatars-1/512/users-9-2-128.png;whiteSpace=wrap;html=1;rounded=0;glass=0;treeFolding=1;treeMoving=1;fillColor=#0050ef;fontColor=#ffffff;strokeColor=#001DBC;" vertex="1" parent="1">
            <mxGeometry x="190" y="-3120" width="180" height="80" as="geometry" />
          </mxCell>
        </UserObject>
        <mxCell id="3rI8jzU3DhC4SiO8iFlz-45" value="" style="edgeStyle=orthogonalEdgeStyle;rounded=0;orthogonalLoop=1;jettySize=auto;html=1;" edge="1" parent="1" source="3rI8jzU3DhC4SiO8iFlz-15" target="3rI8jzU3DhC4SiO8iFlz-40">
          <mxGeometry relative="1" as="geometry">
            <Array as="points">
              <mxPoint x="475" y="-2740" />
              <mxPoint x="453" y="-2740" />
            </Array>
          </mxGeometry>
        </mxCell>
        <UserObject label="&lt;font color=&quot;#e2e4e9&quot;&gt;Học Viên : Vừa học vừa làm vừa nhận lương&lt;br&gt;&lt;/font&gt;" name="Tessa Miller" position="CFO" location="Office 1" email="me@example.com" placeholders="1" id="3rI8jzU3DhC4SiO8iFlz-15">
          <mxCell style="label;image=https://cdn3.iconfinder.com/data/icons/user-avatars-1/512/users-3-128.png;whiteSpace=wrap;html=1;rounded=0;glass=0;treeMoving=1;treeFolding=1;fillColor=#d80073;strokeColor=#A50040;fontColor=#ffffff;" vertex="1" parent="1">
            <mxGeometry x="395" y="-2900" width="150" height="70" as="geometry" />
          </mxCell>
        </UserObject>
        <mxCell id="3rI8jzU3DhC4SiO8iFlz-42" style="edgeStyle=orthogonalEdgeStyle;rounded=0;orthogonalLoop=1;jettySize=auto;html=1;" edge="1" parent="1" source="3rI8jzU3DhC4SiO8iFlz-17" target="3rI8jzU3DhC4SiO8iFlz-40">
          <mxGeometry relative="1" as="geometry">
            <Array as="points">
              <mxPoint x="685" y="-2740" />
              <mxPoint x="453" y="-2740" />
            </Array>
          </mxGeometry>
        </mxCell>
        <UserObject label="&lt;font color=&quot;#e2e4e9&quot;&gt;Học Viên : Vừa học vừa làm vừa nhận lương&lt;br&gt;&lt;/font&gt;" name="Tessa Miller" position="CFO" location="Office 1" email="me@example.com" placeholders="1" id="3rI8jzU3DhC4SiO8iFlz-17">
          <mxCell style="label;image=https://cdn3.iconfinder.com/data/icons/user-avatars-1/512/users-3-128.png;whiteSpace=wrap;html=1;rounded=0;glass=0;treeMoving=1;treeFolding=1;fillColor=#d80073;strokeColor=#A50040;fontColor=#ffffff;" vertex="1" parent="1">
            <mxGeometry x="584.5" y="-2900" width="150" height="70" as="geometry" />
          </mxCell>
        </UserObject>
        <mxCell id="3rI8jzU3DhC4SiO8iFlz-20" value="&lt;font color=&quot;#ffffff&quot;&gt;&lt;b&gt;&lt;i&gt;Học viên học và thực hành&lt;br&gt;&amp;nbsp;ads trên thị trường công ty đang tuyển dụng&lt;/i&gt;&lt;/b&gt;&lt;/font&gt;" style="ellipse;whiteSpace=wrap;html=1;align=center;newEdgeStyle={&quot;edgeStyle&quot;:&quot;entityRelationEdgeStyle&quot;,&quot;startArrow&quot;:&quot;none&quot;,&quot;endArrow&quot;:&quot;none&quot;,&quot;segment&quot;:10,&quot;curved&quot;:1,&quot;sourcePerimeterSpacing&quot;:0,&quot;targetPerimeterSpacing&quot;:0};treeFolding=1;treeMoving=1;fillColor=#fa6800;fontColor=#000000;strokeColor=#C73500;" vertex="1" parent="1">
          <mxGeometry x="360" y="-3040" width="185" height="100" as="geometry" />
        </mxCell>
        <mxCell id="3rI8jzU3DhC4SiO8iFlz-33" value="" style="endArrow=classic;html=1;rounded=0;entryX=0.344;entryY=-0.009;entryDx=0;entryDy=0;entryPerimeter=0;exitX=0.5;exitY=1;exitDx=0;exitDy=0;" edge="1" parent="1" source="3rI8jzU3DhC4SiO8iFlz-20" target="3rI8jzU3DhC4SiO8iFlz-15">
          <mxGeometry width="50" height="50" relative="1" as="geometry">
            <mxPoint x="240" y="-2840" as="sourcePoint" />
            <mxPoint x="430" y="-2860" as="targetPoint" />
          </mxGeometry>
        </mxCell>
        <mxCell id="3rI8jzU3DhC4SiO8iFlz-34" value="" style="endArrow=classic;html=1;rounded=0;exitX=0.5;exitY=1;exitDx=0;exitDy=0;entryX=0;entryY=0;entryDx=0;entryDy=0;" edge="1" parent="1" source="3rI8jzU3DhC4SiO8iFlz-20" target="3rI8jzU3DhC4SiO8iFlz-17">
          <mxGeometry width="50" height="50" relative="1" as="geometry">
            <mxPoint x="380" y="-2810" as="sourcePoint" />
            <mxPoint x="430" y="-2860" as="targetPoint" />
          </mxGeometry>
        </mxCell>
        <mxCell id="3rI8jzU3DhC4SiO8iFlz-35" value="" style="endArrow=classic;html=1;rounded=0;exitX=0.5;exitY=1;exitDx=0;exitDy=0;entryX=1;entryY=0;entryDx=0;entryDy=0;" edge="1" parent="1" source="3rI8jzU3DhC4SiO8iFlz-20" target="3rI8jzU3DhC4SiO8iFlz-9">
          <mxGeometry width="50" height="50" relative="1" as="geometry">
            <mxPoint x="380" y="-2810" as="sourcePoint" />
            <mxPoint x="430" y="-2860" as="targetPoint" />
          </mxGeometry>
        </mxCell>
        <mxCell id="3rI8jzU3DhC4SiO8iFlz-39" style="edgeStyle=orthogonalEdgeStyle;rounded=0;orthogonalLoop=1;jettySize=auto;html=1;" edge="1" parent="1" source="3rI8jzU3DhC4SiO8iFlz-36" target="3rI8jzU3DhC4SiO8iFlz-20">
          <mxGeometry relative="1" as="geometry" />
        </mxCell>
        <UserObject label="&lt;font style=&quot;border-color: var(--border-color);&quot; color=&quot;#e2e4e9&quot;&gt;Name: Nguyễn Trường Sơn&lt;br&gt;Cộng Tác Marketting&lt;br style=&quot;border-color: var(--border-color);&quot;&gt;&lt;/font&gt;" name="Evan Valet" position="HR Director" location="Office 4" email="me@example.com" placeholders="1" id="3rI8jzU3DhC4SiO8iFlz-36">
          <mxCell style="label;image=https://cdn3.iconfinder.com/data/icons/user-avatars-1/512/users-9-2-128.png;whiteSpace=wrap;html=1;rounded=0;glass=0;treeFolding=1;treeMoving=1;fillColor=#0050ef;fontColor=#ffffff;strokeColor=#001DBC;" vertex="1" parent="1">
            <mxGeometry x="520" y="-3120" width="180" height="80" as="geometry" />
          </mxCell>
        </UserObject>
        <mxCell id="3rI8jzU3DhC4SiO8iFlz-40" value="&lt;b&gt;&lt;font style=&quot;font-size: 14px;&quot;&gt;Data Khách Hàng Từ chạy ads và website&lt;/font&gt;&lt;/b&gt;" style="shape=callout;whiteSpace=wrap;html=1;perimeter=calloutPerimeter;fillColor=#e51400;fontColor=#ffffff;strokeColor=#B20000;" vertex="1" parent="1">
          <mxGeometry x="395" y="-2790" width="120" height="80" as="geometry" />
        </mxCell>
        <mxCell id="3rI8jzU3DhC4SiO8iFlz-47" value="Bạn văn thư" style="swimlane;whiteSpace=wrap;html=1;sketch=1;hachureGap=4;jiggle=2;curveFitting=1;fontFamily=Architects Daughter;fontSource=https%3A%2F%2Ffonts.googleapis.com%2Fcss%3Ffamily%3DArchitects%2BDaughter;fontSize=20;fillColor=#fad7ac;strokeColor=#b46504;" vertex="1" parent="1">
          <mxGeometry x="920" y="-2800" width="200" height="200" as="geometry" />
        </mxCell>
        <mxCell id="3rI8jzU3DhC4SiO8iFlz-48" value="&lt;font face=&quot;Times New Roman&quot;&gt;Liên hệ báo cáo công ty qua phần mềm hoặc sđt&lt;/font&gt;" style="whiteSpace=wrap;html=1;sketch=1;hachureGap=4;jiggle=2;curveFitting=1;fontFamily=Architects Daughter;fontSource=https%3A%2F%2Ffonts.googleapis.com%2Fcss%3Ffamily%3DArchitects%2BDaughter;fontSize=20;fillColor=#b0e3e6;strokeColor=#0e8088;" vertex="1" parent="1">
          <mxGeometry x="960" y="-2740" width="140" height="110" as="geometry" />
        </mxCell>
        <mxCell id="3rI8jzU3DhC4SiO8iFlz-53" value="&lt;b&gt;&lt;font style=&quot;font-size: 21px;&quot;&gt;Bảng hoạt động của trung tâm&lt;/font&gt;&lt;/b&gt;" style="shape=document;whiteSpace=wrap;html=1;boundedLbl=1;sketch=1;hachureGap=4;jiggle=2;curveFitting=1;fontFamily=Architects Daughter;fontSource=https%3A%2F%2Ffonts.googleapis.com%2Fcss%3Ffamily%3DArchitects%2BDaughter;fontSize=20;fillColor=#ffcd28;gradientColor=#ffa500;strokeColor=#d79b00;" vertex="1" parent="1">
          <mxGeometry x="480" y="-3340" width="160" height="90" as="geometry" />
        </mxCell>
      </root>
    </mxGraphModel>
  </diagram>
</mxfile>
